<svg xmlns="http://www.w3.org/2000/svg" width="358.636" height="133.195" viewBox="0 0 358.636 133.195">
  <g id="shop-high-resolution-logo-color-on-transparent-background" transform="translate(-0.24 36.742)">
    <g id="Group_12" data-name="Group 12" transform="translate(0.24 -36.742)">
      <g id="tight-bounds" transform="translate(0 0)">
        <g id="Group_11" data-name="Group 11">
          <g id="Group_10" data-name="Group 10">
            <g id="Group_9" data-name="Group 9">
              <g id="Group_8" data-name="Group 8">
                <g id="Group_7" data-name="Group 7">
                  <g id="Group_6" data-name="Group 6">
                    <g id="Group_5" data-name="Group 5">
                      <g id="Group_4" data-name="Group 4">
                        <g id="Group_3" data-name="Group 3">
                          <g id="Group_2" data-name="Group 2">
                            <g id="Group_1" data-name="Group 1">
                              <path id="text-0" d="M70.4,46.581h0q0,8.62-10.98,14.515Q48.4,67.019,33.668,67.019T9.488,63.4Q0,59.79,0,56.508q0-3.253,5.854-8.342,5.815-5.061,11.937-5.9h0q8.8,3.476,15.877,15.433h0q5.547,0,5.547-2.642h0a5.257,5.257,0,0,0-1.53-3.615q-1.53-1.668-2.3-2.642a25.937,25.937,0,0,0-2.678-2.725q-1.913-1.724-2.869-2.558h0q-4.782-4.171-8.608-7.647h0q-9.182-8.342-9.182-14.682A12.285,12.285,0,0,1,17.6,10.85h0q9.565-7.091,28.12-7.091h0q11.669,0,18.555,3.253,6.887,3.281,6.887,9.732,0,6.479-10.521,14.821h0Q70.4,39.769,70.4,46.581ZM57.579,21.055q2.3-2.558,2.3-4.644t-2.487-3.2a14.444,14.444,0,0,0-5.93-1.112,9.667,9.667,0,0,0-5.241,1.168,3.613,3.613,0,0,0-1.836,3.142q0,1.946,8.226,8.62h0A17.412,17.412,0,0,0,57.579,21.055Zm79-50.386h0q0,9.732-9.756,40.042h0Q143.279,3.9,152.728,3.9q9.488,0,14.079,3.67a11.346,11.346,0,0,1,4.591,9.176q0,5.506-4.208,17.24-4.208,11.762-4.208,15.377t1.53,3.615h0l9.947-1.946,3.443,6.952A82.089,82.089,0,0,1,161.528,64.1a69.288,69.288,0,0,1-18.441,2.92h0q-15.495,0-15.495-12.791h0q0-5.839,4.017-17.24t4.017-14.4q0-2.975-2.869-2.975h0q-4.017,0-9.756,2.781h0q-8.608,26.555-8.608,36.983h0l.191,3.337a187.259,187.259,0,0,1-35.007,3.754h0q-1.148-.417-1.148-4.449h0q0-8.62,11.363-42.683,11.4-34.063,11.4-45.881h0a24.183,24.183,0,0,0-.765-6.4h0A176.043,176.043,0,0,1,135.244-36.7h0Q136.583-34.336,136.583-29.331Zm77.091,96.351h0q-14.921,0-23.529-6.9-8.608-6.868-8.608-19.381h0q0-15.294,12.434-25.944Q206.405,4.176,226.682,4.176h0l8.608.556a41.622,41.622,0,0,1,8.608-.973h0q9.565,0,13.658,4.727,4.132,4.727,4.706,13.486h0a89.242,89.242,0,0,0,15.3-1.807h0l2.678-.556q1.339.973,1.913,5.839h0l.191,1.529a104.159,104.159,0,0,1-21.042,5.005h0A48.9,48.9,0,0,1,244.664,56.87Q232.23,67.019,213.674,67.019ZM217.5,40.186h0q0,12.93,8.991,12.93h0q6.313,0,12.893-5.839A30.011,30.011,0,0,0,248.49,33.1h0q-19.512,0-19.512-13.625h0a21.742,21.742,0,0,1,.574-4.866h0a7.532,7.532,0,0,0-2.869.417h0q-3.252,2.5-6.236,10.066A41.5,41.5,0,0,0,217.5,40.186Zm45.107,56.309h0q-1.53-1.807-1.53-7.647t7.384-31.7q7.346-25.86,7.346-32.395T274.085,14.8q-1.722-3.392-3.443-4.366h0l-1.722-.973.383-2.086q11.478-2.642,38.833-2.642h0a17.09,17.09,0,0,1,2.487,5.422h0q12.243-6.4,23.146-6.4t17.905,6.034q6.963,6.062,6.963,20.521T348.23,55.9Q337.785,67.019,317.7,67.019h0a60.094,60.094,0,0,1-17.216-2.5h0q-4.4,15.711-4.4,27.668h0Q282.31,95.8,262.607,96.495ZM308.9,55.341h0q5.165,0,8.8-5.561h0q6.5-9.732,6.5-23.636h0q0-8.2-5.547-8.2h0A26.687,26.687,0,0,0,311,19.47h0q-1.148,11.679-7.652,35.176h0A27.216,27.216,0,0,0,308.9,55.341Z" transform="translate(0 36.7)" fill="#4e8524"/>
                            </g>
                          </g>
                        </g>
                      </g>
                    </g>
                  </g>
                </g>
              </g>
            </g>
          </g>
        </g>
      </g>
    </g>
  </g>
</svg>
