<svg xmlns="http://www.w3.org/2000/svg" width="113.697" height="164.152" viewBox="0 0 113.697 164.152">
  <g id="t-high-resolution-color-logo" transform="translate(-330.611 304.601)">
    <g id="Group_24" data-name="Group 24" transform="translate(330.611 -304.601)">
      <g id="tight-bounds">
        <g id="Group_23" data-name="Group 23">
          <g id="Group_22" data-name="Group 22">
            <g id="Group_21" data-name="Group 21">
              <g id="Group_20" data-name="Group 20">
                <g id="Group_19" data-name="Group 19">
                  <g id="Group_18" data-name="Group 18">
                    <g id="Group_17" data-name="Group 17">
                      <g id="Group_16" data-name="Group 16">
                        <g id="Group_15" data-name="Group 15">
                          <g id="Group_14" data-name="Group 14">
                            <g id="Group_13" data-name="Group 13">
                              <path id="text-0" d="M52.414,11.515a40.572,40.572,0,0,1-12.5,16.308A28.6,28.6,0,0,1,21.973,34.26q-9.676,0-15.8-6.008Q0,22.244,0,10.442A20.34,20.34,0,0,1,9.878-7.711q9.878-6.309,23.183-6.309h80.031a29.346,29.346,0,0,1,.6,5.794h0a22.816,22.816,0,0,1-4.435,13.518q-4.435,6.223-13.507,6.223H52.414Zm-13.1,0h-13.1q-7.459,0-7.459,5.579h0q0,4.506,6.451,4.506h0q3.024,0,7.177-2.79a24.178,24.178,0,0,0,6.935-7.3Zm28.626,96.56q-5.04,42.057-35.682,42.057h0q-10.886,0-17.417-7.081-6.572-7.081-6.572-17.81h0q0-25.106,35.883-42.915h0L51.2,25.248a33.414,33.414,0,0,1,19.151-5.579h0a42.8,42.8,0,0,1,9.676,1.073h0Zm-26.005-7.51Q23.183,112.151,23.183,122.88h0q0,7.725,7.056,7.725h0q8.064,0,10.08-16.522h0Z" transform="translate(0 14.02)" fill="#c40202"/>
                            </g>
                          </g>
                        </g>
                      </g>
                    </g>
                  </g>
                </g>
              </g>
            </g>
          </g>
        </g>
      </g>
    </g>
  </g>
</svg>
